# xmcd CD database file
# Generated: Tue May 13 16:22:42 2003 by KSCD
# 
# Track frame offsets:
#       150
#       18901
#       36527
#       51414
#       67988
#       92916
#       111412
#       128686
#       151069
#       193992
#       210159
#       225219
#
# Disc length: 3202 seconds
#
# Revision: 1
# Processed by: cddbd v1.4PL0 Copyright (c) Steve Scherf et al.
# Submitted via: Kscd 1.3.3
#
DISCID=9b0c800c
DTITLE=Rick Derringer - Blues Deluxe
DYEAR=1900
DGENRE=
TTITLE0=Let The Good Times Roll
TTITLE1=
TTITLE2=
TTITLE3=
TTITLE4=
TTITLE5=
TTITLE6=
TTITLE7=
TTITLE8=
TTITLE9=
TTITLE10=
TTITLE11=
EXTD=
EXTT0=
EXTT1=
EXTT2=
EXTT3=
EXTT4=
EXTT5=
EXTT6=
EXTT7=
EXTT8=
EXTT9=
EXTT10=
EXTT11=
PLAYORDER=
